<!-- public/icons/safari.svg -->
<svg xmlns="http://www.w3.org/2000/svg" viewBox="0 0 64 64">
  <path fill="#e67e22" d="M32 2C15.4 2 2 15.4 2 32s13.4 30 30 30 30-13.4 30-30S48.6 2 32 2zm0 56C17.6 58 6 46.4 6 32S17.6 6 32 6s26 11.6 26 26-11.6 26-26 26z"/>
  <path fill="#2c3e50" d="M32 10c-12.1 0-22 9.9-22 22s9.9 22 22 22 22-9.9 22-22-9.9-22-22-22zm0 40c-9.9 0-18-8.1-18-18s8.1-18 18-18 18 8.1 18 18-8.1 18-18 18z"/>
  <path fill="#e67e22" d="M46 32c0 7.7-6.3 14-14 14s-14-6.3-14-14 6.3-14 14-14 14 6.3 14 14z"/>
  <path fill="#fff" d="M32 22c-5.5 0-10 4.5-10 10s4.5 10 10 10 10-4.5 10-10-4.5-10-10-10zm0 16c-3.3 0-6-2.7-6-6s2.7-6 6-6 6 2.7 6 6-2.7 6-6 6z"/>
  <circle cx="32" cy="32" r="2" fill="#2c3e50"/>
</svg>